<mxfile host="app.diagrams.net" modified="2023-06-22T17:22:01.503Z" agent="Mozilla/5.0 (Windows NT 10.0; Win64; x64) AppleWebKit/537.36 (KHTML, like Gecko) Chrome/114.0.0.0 Safari/537.36 Edg/114.0.1823.51" version="21.5.0" etag="yWsh1cV7bioLb_VFi0Fh" type="github">
  <diagram name="PÃ¡gina-1" id="mzGagi53_wwcV4Ezhi1A">
    <mxGraphModel>
      <root>
        <mxCell id="0" />
        <mxCell id="1" parent="0" />
      </root>
    </mxGraphModel>
  </diagram>
</mxfile>
